<?xml version="1.0" encoding="utf-8"?>
<!-- Generator: Adobe Illustrator 26.3.0, SVG Export Plug-In . SVG Version: 6.00 Build 0)  -->
<svg version="1.1" id="Layer_1" xmlns="http://www.w3.org/2000/svg" xmlns:xlink="http://www.w3.org/1999/xlink" x="0px" y="0px"
	 viewBox="0 0 302.12 385.14" style="enable-background:new 0 0 302.12 385.14;" xml:space="preserve">
<style type="text/css">
	.st0{fill:#FFFFFF;}
	.st1{fill:#F2BA47;}
</style>
<path class="st0" d="M0,198.22v186.92h97.69V255.82l87.53,129.32h116.89L192.56,233.79c0,0,64.38-16.94,90.35-81.88
	c-89.6,116.61-155.86,3.58-167.15,4.52c-10.16-0.94-35.13,24.99-46.31,36.11C35.95,225.89,0,198.22,0,198.22z"/>
<path class="st1" d="M0,182.41V4.52C0,4.52,126.58-12,211.34,18.1s72.71,117.44,72.71,117.44s-27.11,42.16-79.06,31.62
	c-51.95-10.54-33.04-50.92-25.98-70.78c-50.45-8.28-94.31,36.89-94.31,36.89s-22.31,39.81-42.92,53.65S0,182.41,0,182.41z"/>
</svg>
